<?xml version="1.0" encoding="UTF-8"?>
<svg id="_レイヤー_1" data-name="レイヤー 1" xmlns="http://www.w3.org/2000/svg" xmlns:xlink="http://www.w3.org/1999/xlink" viewBox="0 0 1920 1080">
  <defs>
    <style>
      .cls-1 {
        fill: #666;
        filter: url(#drop-shadow-4);
      }

      .cls-2 {
        fill: #1a1a1a;
        filter: url(#drop-shadow-1);
      }

      .cls-3 {
        filter: url(#drop-shadow-9);
      }

      .cls-4 {
        filter: url(#drop-shadow-7);
      }

      .cls-5 {
        filter: url(#drop-shadow-8);
      }

      .cls-6 {
        filter: url(#drop-shadow-5);
      }

      .cls-6, .cls-7 {
        fill: gray;
      }

      .cls-8 {
        fill: #999;
        filter: url(#drop-shadow-6);
      }

      .cls-9 {
        fill: #333;
        filter: url(#drop-shadow-2);
      }

      .cls-10 {
        fill: #4d4d4d;
        filter: url(#drop-shadow-3);
      }

      .cls-11 {
        filter: url(#drop-shadow-10);
      }

      .cls-12 {
        fill: #fff;
      }

      .cls-13 {
        opacity: .25;
      }
    </style>
    <filter id="drop-shadow-1" x="-30" y="-30" width="1980" height="1140" filterUnits="userSpaceOnUse">
      <feOffset dx="0" dy="0"/>
      <feGaussianBlur result="blur" stdDeviation="10"/>
      <feFlood flood-color="#000" flood-opacity=".5"/>
      <feComposite in2="blur" operator="in"/>
      <feComposite in="SourceGraphic"/>
    </filter>
    <filter id="drop-shadow-2" x="-30" y="-30" width="1020" height="1140" filterUnits="userSpaceOnUse">
      <feOffset dx="0" dy="0"/>
      <feGaussianBlur result="blur-2" stdDeviation="10"/>
      <feFlood flood-color="#000" flood-opacity=".5"/>
      <feComposite in2="blur-2" operator="in"/>
      <feComposite in="SourceGraphic"/>
    </filter>
    <filter id="drop-shadow-3" x="-30" y="-30" width="1980" height="1140" filterUnits="userSpaceOnUse">
      <feOffset dx="0" dy="0"/>
      <feGaussianBlur result="blur-3" stdDeviation="10"/>
      <feFlood flood-color="#000" flood-opacity=".5"/>
      <feComposite in2="blur-3" operator="in"/>
      <feComposite in="SourceGraphic"/>
    </filter>
    <filter id="drop-shadow-4" x="450" y="-30" width="1500" height="1140" filterUnits="userSpaceOnUse">
      <feOffset dx="0" dy="0"/>
      <feGaussianBlur result="blur-4" stdDeviation="10"/>
      <feFlood flood-color="#000" flood-opacity=".5"/>
      <feComposite in2="blur-4" operator="in"/>
      <feComposite in="SourceGraphic"/>
    </filter>
    <filter id="drop-shadow-5" x="690" y="-30" width="1260" height="1140" filterUnits="userSpaceOnUse">
      <feOffset dx="0" dy="0"/>
      <feGaussianBlur result="blur-5" stdDeviation="10"/>
      <feFlood flood-color="#000" flood-opacity=".5"/>
      <feComposite in2="blur-5" operator="in"/>
      <feComposite in="SourceGraphic"/>
    </filter>
    <filter id="drop-shadow-6" x="810" y="-30" width="1140" height="1140" filterUnits="userSpaceOnUse">
      <feOffset dx="0" dy="0"/>
      <feGaussianBlur result="blur-6" stdDeviation="10"/>
      <feFlood flood-color="#000" flood-opacity=".5"/>
      <feComposite in2="blur-6" operator="in"/>
      <feComposite in="SourceGraphic"/>
    </filter>
    <filter id="drop-shadow-7" x="673" y="388" width="574" height="244" filterUnits="userSpaceOnUse">
      <feOffset dx="0" dy="0"/>
      <feGaussianBlur result="blur-7" stdDeviation="25"/>
      <feFlood flood-color="#000" flood-opacity=".25"/>
      <feComposite in2="blur-7" operator="in"/>
      <feComposite in="SourceGraphic"/>
    </filter>
    <filter id="drop-shadow-8" x="669" y="487" width="582" height="205" filterUnits="userSpaceOnUse">
      <feOffset dx="0" dy="0"/>
      <feGaussianBlur result="blur-8" stdDeviation="25"/>
      <feFlood flood-color="#000" flood-opacity=".25"/>
      <feComposite in2="blur-8" operator="in"/>
      <feComposite in="SourceGraphic"/>
    </filter>
    <filter id="drop-shadow-9" x="600" y="340" width="200" height="400" filterUnits="userSpaceOnUse">
      <feOffset dx="0" dy="0"/>
      <feGaussianBlur result="blur-9" stdDeviation="25"/>
      <feFlood flood-color="#000" flood-opacity=".25"/>
      <feComposite in2="blur-9" operator="in"/>
      <feComposite in="SourceGraphic"/>
    </filter>
    <filter id="drop-shadow-10" x="1120" y="340" width="200" height="400" filterUnits="userSpaceOnUse">
      <feOffset dx="0" dy="0"/>
      <feGaussianBlur result="blur-10" stdDeviation="25"/>
      <feFlood flood-color="#000" flood-opacity=".25"/>
      <feComposite in2="blur-10" operator="in"/>
      <feComposite in="SourceGraphic"/>
    </filter>
  </defs>
  <rect class="cls-7" width="1920" height="1080"/>
  <rect class="cls-2" width="1920" height="1080"/>
  <polygon class="cls-9" points="0 1080 960 0 0 0 0 1080"/>
  <polygon class="cls-10" points="0 0 960 1080 1920 1080 1920 0 0 0"/>
  <polygon class="cls-1" points="480 1080 1440 0 1920 0 1920 1080 480 1080"/>
  <polygon class="cls-6" points="720 0 1680 1080 1920 1080 1920 0 720 0"/>
  <polygon class="cls-8" points="1800 0 840 1080 1920 1080 1920 0 1800 0"/>
  <g>
    <g class="cls-4">
      <path class="cls-12" d="M748.94,554.89v-90.19h12.94l55.5,79.69-14.81-13.12h6.06v-66.56h13.94v90.19h-12.94l-55.5-79.81,14.81,13.06h-6.06v66.75h-13.94Z"/>
      <path class="cls-12" d="M865.56,556.2c-6.42,0-11.95-1.38-16.59-4.16-4.65-2.77-8.21-6.71-10.69-11.81-2.48-5.1-3.72-11.11-3.72-18.03v-.06c0-6.83,1.25-12.82,3.75-17.97,2.5-5.15,6.02-9.15,10.56-12,4.54-2.85,9.88-4.28,16-4.28s11.47,1.37,15.91,4.09c4.44,2.73,7.86,6.58,10.28,11.56,2.42,4.98,3.62,10.76,3.62,17.34v4.56h-53.44v-9.56h46.88l-6.69,8.94v-5.25c0-4.62-.7-8.47-2.09-11.53-1.4-3.06-3.33-5.34-5.81-6.84-2.48-1.5-5.34-2.25-8.59-2.25s-6.08.79-8.62,2.38c-2.54,1.58-4.54,3.91-6,6.97-1.46,3.06-2.19,6.82-2.19,11.28v5.25c0,4.25.72,7.89,2.16,10.91,1.44,3.02,3.49,5.33,6.16,6.94,2.67,1.6,5.81,2.41,9.44,2.41,2.67,0,5.02-.41,7.06-1.22,2.04-.81,3.74-1.9,5.09-3.25s2.3-2.86,2.84-4.53l.19-.5h12.88l-.12.69c-.54,2.58-1.56,5.06-3.06,7.44s-3.45,4.51-5.84,6.41c-2.4,1.9-5.22,3.39-8.47,4.47s-6.88,1.62-10.88,1.62Z"/>
      <path class="cls-12" d="M906.69,554.89v-90.19h14v90.19h-14ZM913.69,524.08v-11.75h23.12c6.04,0,10.74-1.57,14.09-4.72,3.35-3.15,5.03-7.51,5.03-13.09v-.12c0-5.67-1.68-10.06-5.03-13.19-3.35-3.12-8.05-4.69-14.09-4.69h-23.12v-11.81h26.62c5.92,0,11.11,1.24,15.59,3.72,4.48,2.48,7.99,5.94,10.53,10.38,2.54,4.44,3.81,9.59,3.81,15.47v.12c0,5.88-1.27,11.05-3.81,15.53-2.54,4.48-6.05,7.96-10.53,10.44-4.48,2.48-9.68,3.72-15.59,3.72h-26.62Z"/>
      <path class="cls-12" d="M982.5,554.89v-90.19h14v78.06h42.06v12.12h-56.06Z"/>
      <path class="cls-12" d="M1085.31,556.39c-8.5,0-15.89-1.9-22.16-5.69-6.27-3.79-11.12-9.18-14.53-16.16-3.42-6.98-5.12-15.24-5.12-24.78v-.06c0-9.54,1.71-17.79,5.12-24.75,3.42-6.96,8.25-12.32,14.5-16.09,6.25-3.77,13.65-5.66,22.19-5.66,6.62,0,12.6,1.27,17.94,3.81,5.33,2.54,9.73,6.06,13.19,10.56,3.46,4.5,5.65,9.73,6.56,15.69l.06.62h-13.94l-.38-1.25c-.96-3.54-2.51-6.58-4.66-9.12-2.15-2.54-4.79-4.49-7.94-5.84-3.15-1.35-6.76-2.03-10.84-2.03-5.58,0-10.43,1.4-14.53,4.19-4.1,2.79-7.28,6.73-9.53,11.81-2.25,5.08-3.38,11.1-3.38,18.06v.06c0,6.92,1.12,12.95,3.38,18.09,2.25,5.15,5.44,9.12,9.56,11.91,4.12,2.79,8.96,4.19,14.5,4.19,4,0,7.57-.68,10.72-2.03,3.15-1.35,5.82-3.34,8.03-5.97,2.21-2.62,3.85-5.83,4.94-9.62l.19-.62h13.94l-.12.62c-.92,6-3.09,11.26-6.53,15.78-3.44,4.52-7.82,8.03-13.16,10.53-5.33,2.5-11.33,3.75-18,3.75Z"/>
      <path class="cls-12" d="M1157.31,554.89v-76.25h-.31l-23.56,16.25v-13.31l23.75-16.88h13.88v90.19h-13.75Z"/>
    </g>
    <g class="cls-5">
      <path class="cls-12" d="M765.62,562.8l-15.66,54h-5.72l15.63-54h5.75Z"/>
      <path class="cls-12" d="M768.94,606.26v-31.47h6.17v6.14h.12c1.2-2.11,2.98-3.77,5.33-5,2.35-1.22,5.1-1.84,8.25-1.84,4.64,0,8.25,1.3,10.83,3.89,2.58,2.59,3.87,6.19,3.87,10.81v17.47h-6.17v-16.47c0-3.43-.86-6.04-2.59-7.83-1.73-1.79-4.29-2.68-7.68-2.68-2.39,0-4.48.47-6.28,1.4-1.8.93-3.19,2.25-4.19,3.95-.99,1.7-1.49,3.69-1.49,5.98v15.66h-6.17Z"/>
      <path class="cls-12" d="M827.55,606.95c-3.94,0-7.33-.64-10.18-1.93-2.85-1.28-5.04-3.14-6.57-5.57-1.53-2.43-2.29-5.38-2.29-8.85v-.03c0-3.33.78-6.24,2.33-8.72,1.56-2.48,3.72-4.4,6.51-5.75,2.78-1.36,6.03-2.01,9.74-1.97,3.79.02,7.04.72,9.74,2.09,2.7,1.38,4.77,3.3,6.2,5.77,1.44,2.47,2.15,5.35,2.15,8.64v1.51h-33.55v-4.43h29.79l-2.26,3.58v-1.72c0-2.15-.49-4-1.48-5.56-.98-1.56-2.37-2.76-4.17-3.61-1.8-.85-3.93-1.28-6.4-1.28-2.61,0-4.84.41-6.7,1.23-1.86.82-3.27,2.05-4.25,3.67-.97,1.63-1.46,3.64-1.46,6.05v1.02c0,2.63.59,4.74,1.76,6.32,1.17,1.59,2.75,2.74,4.73,3.45,1.98.71,4.14,1.07,6.49,1.07,1.67,0,3.23-.18,4.68-.54,1.46-.36,2.71-.89,3.76-1.58s1.83-1.53,2.33-2.51l.12-.24h6.08l-.09.3c-.5,1.57-1.29,2.95-2.36,4.14-1.07,1.2-2.36,2.2-3.85,3.01-1.5.81-3.16,1.42-4.98,1.82-1.83.4-3.77.6-5.84.6Z"/>
      <path class="cls-12" d="M850.31,616.8v-42.01h6.17v5.99h.15c.86-1.34,1.98-2.51,3.36-3.51,1.38-.99,3-1.77,4.86-2.32,1.87-.55,3.93-.83,6.2-.83,3.59,0,6.69.7,9.28,2.11,2.59,1.41,4.58,3.34,5.96,5.81s2.08,5.28,2.08,8.43v.06c0,3.19-.69,6.02-2.08,8.49s-3.37,4.41-5.95,5.81c-2.58,1.41-5.67,2.11-9.26,2.11-2.27,0-4.34-.27-6.2-.81s-3.49-1.31-4.88-2.32c-1.39-1-2.51-2.18-3.37-3.52h-.15v16.5h-6.17ZM869.44,601.83c2.67,0,4.95-.46,6.85-1.37,1.9-.91,3.34-2.21,4.34-3.89.99-1.68,1.49-3.69,1.49-6.04v-.06c0-2.31-.5-4.31-1.49-6.01-.99-1.7-2.44-3-4.34-3.9s-4.18-1.36-6.85-1.36-4.91.47-6.84,1.4-3.43,2.25-4.5,3.95c-1.07,1.7-1.61,3.67-1.61,5.92v.06c0,2.27.54,4.25,1.61,5.95,1.07,1.7,2.58,3.01,4.5,3.95s4.21,1.4,6.84,1.4Z"/>
      <path class="cls-12" d="M950,574.78v31.5h-6.14v-6.17h-.12c-1.08,2.23-2.65,3.93-4.7,5.09s-4.44,1.75-7.17,1.75c-2.01,0-3.8-.31-5.38-.92-1.58-.61-2.91-1.49-4.01-2.62-1.09-1.13-1.95-2.51-2.58-4.14h-.12c-.78,1.69-1.82,3.1-3.12,4.25s-2.78,2-4.44,2.58c-1.67.57-3.46.86-5.39.86-2.87,0-5.31-.57-7.3-1.72-2-1.14-3.52-2.77-4.56-4.86-1.04-2.1-1.57-4.58-1.57-7.45v-18.13h6.17v17.08c0,2.11.33,3.9.98,5.36.65,1.47,1.65,2.59,2.98,3.37,1.34.78,3.01,1.17,5.01,1.17,2.13,0,3.95-.44,5.45-1.31s2.66-2.11,3.46-3.72,1.2-3.47,1.2-5.6v-16.35h6.11v17.29c0,2.05.33,3.79.98,5.23.65,1.44,1.64,2.54,2.97,3.31,1.33.77,2.98,1.16,4.97,1.16,2.11,0,3.92-.45,5.44-1.34,1.52-.89,2.68-2.15,3.49-3.78s1.22-3.49,1.22-5.6v-16.26h6.14Z"/>
      <path class="cls-12" d="M956.63,606.26v-21.99c0-3.21.92-5.7,2.76-7.45,1.84-1.76,4.56-2.64,8.18-2.64.68,0,1.41.03,2.17.08.76.05,1.42.11,1.96.17v4.76c-.4-.04-.87-.08-1.42-.12-.54-.04-1.07-.06-1.6-.06-1.3,0-2.39.21-3.27.62-.87.41-1.53,1.02-1.96,1.84-.43.81-.65,1.83-.65,3.06v21.74h-6.17Z"/>
      <path class="cls-12" d="M1032.16,574.78v31.5h-6.14v-6.17h-.12c-1.08,2.23-2.65,3.93-4.7,5.09s-4.44,1.75-7.17,1.75c-2.01,0-3.8-.31-5.38-.92-1.58-.61-2.91-1.49-4.01-2.62-1.09-1.13-1.95-2.51-2.58-4.14h-.12c-.78,1.69-1.82,3.1-3.12,4.25s-2.78,2-4.44,2.58c-1.67.57-3.46.86-5.39.86-2.87,0-5.31-.57-7.3-1.72-2-1.14-3.52-2.77-4.56-4.86-1.04-2.1-1.57-4.58-1.57-7.45v-18.13h6.17v17.08c0,2.11.33,3.9.98,5.36.65,1.47,1.65,2.59,2.98,3.37,1.34.78,3.01,1.17,5.01,1.17,2.13,0,3.95-.44,5.45-1.31s2.66-2.11,3.46-3.72c.8-1.61,1.2-3.47,1.2-5.6v-16.35h6.11v17.29c0,2.05.33,3.79.98,5.23.65,1.44,1.64,2.54,2.97,3.31,1.33.77,2.98,1.16,4.97,1.16,2.11,0,3.92-.45,5.44-1.34,1.52-.89,2.68-2.15,3.49-3.78s1.22-3.49,1.22-5.6v-16.26h6.14Z"/>
      <path class="cls-12" d="M1039.12,606.26v-43.46h6.17v43.46h-6.17ZM1043.79,595.78v-6.99h1.63l19.61-14.03h8.61l-19.61,14.16-.78.18-9.46,6.69ZM1066.46,606.26l-16.26-16.38,4.61-3.46,19.37,19.85h-7.71Z"/>
      <path class="cls-12" d="M1093.36,606.95c-3.75,0-7.06-.67-9.91-2.02-2.85-1.34-5.08-3.24-6.69-5.69-1.61-2.45-2.41-5.35-2.41-8.7v-.06c0-3.35.8-6.25,2.41-8.69,1.61-2.44,3.84-4.33,6.69-5.68,2.85-1.34,6.14-2.02,9.88-2.02s7.09.67,9.95,2.02c2.86,1.35,5.1,3.24,6.7,5.68,1.61,2.44,2.41,5.34,2.41,8.69v.06c0,3.35-.8,6.25-2.41,8.7-1.61,2.45-3.84,4.35-6.7,5.69s-6.17,2.02-9.92,2.02ZM1093.36,601.86c2.53,0,4.75-.45,6.66-1.34,1.91-.89,3.4-2.18,4.47-3.85,1.07-1.68,1.61-3.72,1.61-6.13v-.06c0-2.39-.54-4.43-1.61-6.11-1.07-1.69-2.57-2.97-4.49-3.85-1.92-.88-4.14-1.33-6.67-1.33s-4.66.45-6.57,1.34c-1.91.89-3.4,2.18-4.47,3.85-1.07,1.68-1.61,3.71-1.61,6.1v.06c0,2.41.54,4.45,1.61,6.13,1.07,1.68,2.57,2.96,4.47,3.85,1.91.89,4.11,1.34,6.6,1.34Z"/>
      <path class="cls-12" d="M1117.54,606.26v-31.47h5.48l25.84,27.35-6.35-4.04h2.65v-23.31h5.9v31.47h-5.45l-25.84-27.41,6.32,4.01h-2.62v23.4h-5.93Z"/>
      <path class="cls-12" d="M1175.76,562.8l-15.66,54h-5.72l15.63-54h5.75Z"/>
    </g>
    <g class="cls-3">
      <path class="cls-12" d="M675.58,665v-250h48.83v14.64h-33.13v220.86h33.13v14.5h-48.83Z"/>
    </g>
    <g class="cls-11">
      <path class="cls-12" d="M1244.42,665v-250h-48.83v14.64h33.13v220.86h-33.13v14.5h48.83Z"/>
    </g>
  </g>
  <g class="cls-13">
    <path class="cls-12" d="M914.18,1061.69l-4.5.08-8.5-14.19.25,14.34-5.02.09-.41-23.69,4.61-.08,8.36,14.02-.25-14.17,5.05-.09.41,23.69Z"/>
    <path class="cls-12" d="M933.49,1058.43c-1.61,2.44-4.52,3.35-7.27,3.39-4.57.08-8.45-3.22-8.54-8.28-.09-5.09,3.67-8.39,8.24-8.47,4.57-.08,8.28,3.26,8.36,8.31,0,.41-.02,1.07-.04,1.48l-11.76.21c.31,1.85,2.28,2.64,4,2.61,1.34-.02,2.71-.49,3.48-1.57l3.51,2.31ZM929.46,1051.96c-.31-1.95-2.04-2.72-3.42-2.69-1.31.02-3.19.74-3.53,2.81l6.95-.12Z"/>
    <path class="cls-12" d="M942.48,1061.2l-4.78.08-.28-16.06,4.78-.08.07,3.89c.77-3.01,2.81-4.28,4.46-4.31,1.13-.02,1.96.17,2.76.54l-.78,4.31c-.87-.4-1.66-.45-2.45-.44-2.75.05-3.95,2.2-3.88,6.46l.1,5.6Z"/>
    <path class="cls-12" d="M959.46,1044.49c2.89-.05,5.45,1.11,7.04,3.28l-3.84,2.85c-.67-1.05-1.89-1.58-3.12-1.56-2.03.04-3.96,1.51-3.92,3.82.04,2.3,2.03,3.82,4.06,3.78,1.24-.02,2.43-.59,3.07-1.67l3.93,2.68c-1.47,2.23-4.03,3.51-6.92,3.56-4.57.08-8.79-3.22-8.88-8.27-.09-5.09,4.02-8.39,8.59-8.47Z"/>
    <path class="cls-12" d="M968.71,1052.66c-.09-5.09,3.6-8.39,8.18-8.47,4.54-.08,8.41,3.09,8.5,8.17.09,5.05-3.67,8.42-8.21,8.5-4.57.08-8.38-3.16-8.47-8.21ZM980.68,1052.45c-.04-2.2-1.68-3.62-3.71-3.58-1.96.03-3.58,1.51-3.55,3.71.04,2.23,1.71,3.65,3.67,3.62,2.03-.04,3.62-1.51,3.58-3.74Z"/>
    <path class="cls-12" d="M993.75,1060.3l-4.78.08-.28-16.06,4.78-.08.04,2.34c.83-1.63,2.67-2.73,4.59-2.76,3.61-.06,5.92,2.13,6,6.7l.17,9.59-4.78.08-.15-8.56c-.04-2.17-1.22-3.18-2.84-3.15-1.69.03-2.94.88-2.9,3.32l.15,8.49Z"/>
    <path class="cls-12" d="M1023.2,1056.86c-1.61,2.44-4.52,3.35-7.27,3.39-4.57.08-8.45-3.22-8.54-8.28-.09-5.09,3.67-8.39,8.24-8.47,4.57-.08,8.28,3.26,8.37,8.31,0,.41-.02,1.07-.04,1.48l-11.76.21c.31,1.85,2.28,2.64,4,2.61,1.34-.02,2.71-.49,3.48-1.57l3.51,2.31ZM1019.17,1050.4c-.31-1.95-2.04-2.72-3.42-2.69-1.31.02-3.19.74-3.53,2.81l6.95-.12Z"/>
  </g>
</svg>